<?xml version="1.0" standalone="no"?>
<!DOCTYPE svg PUBLIC "-//W3C//DTD SVG 1.1//EN" "http://www.w3.org/Graphics/SVG/1.1/DTD/svg11.dtd">
<svg xmlns="http://www.w3.org/2000/svg">
<metadata>Generated by Fontastic.me</metadata>
<defs>
<font id="ubuntu-gnome" horiz-adv-x="512">
<font-face font-family="ubuntu-gnome" units-per-em="512" ascent="480" descent="-32"/>
<missing-glyph horiz-adv-x="512" />

<glyph glyph-name="genericon-google-plus" unicode="&#57344;" d="M182 288l138 0c0 0 3-10 3-22 0-84-57-141-141-141-80 0-147 67-147 147 0 80 71 147 147 147 39 0 74-13 96-38l-38-39c-10 7-26 20-58 20-51 0-92-42-92-93 0-51 41-93 92-93 58 0 80 42 84 61l-84 0z m234 0l32 0 0-32-32 0 0-32-32 0 0 32-32 0 0 32 32 0 0 32 32 0z"/>
<glyph glyph-name="genericon-chat" unicode="&#57345;" d="M416 384c35 0 64-29 64-64l0-96c0-35-29-64-64-64l-32 0 0-112-112 112-83 0 32 32 99 0c53 0 96 43 96 96z m-96 64c35 0 64-29 64-64l0-96c0-35-29-64-64-64l-112 0-112-112 0 112-32 0c-35 0-64 29-64 64l0 96c0 35 29 64 64 64z"/>
<glyph glyph-name="genericon-facebook-alt" unicode="&#57346;" d="M296 318l82 0-4-76-78 0 0-210-80 0 0 210-56 0 0 76 56 0 0 65c0 50 32 97 108 97 31 0 53-3 53-3l-1-71c0 0-24 1-49 1-27 0-31-13-31-34 0-3 0-4 0-3z"/>
<glyph glyph-name="genericon-github" unicode="&#57347;" d="M256 512c141 0 256-115 256-256 0-113-73-209-175-243-13-2-18 6-18 12 0 9 1 36 1 71 0 24-8 39-18 47 57 6 117 28 117 126 0 28-10 51-26 69 3 7 11 33-3 68 0 0-21 7-70-26-20 5-42 8-64 8-22 0-44-3-64-8-49 33-70 26-70 26-14-35-6-61-3-68-16-18-26-41-26-69 0-98 59-120 116-126-7-7-14-18-16-34-15-7-52-18-74 21 0 0-14 24-40 26 0 0-25 1-1-15 0 0 16-8 28-38 0 0 15-49 86-34 0-21 1-37 1-44 0-6-5-14-18-12-102 34-175 130-175 243 0 141 115 256 256 256z"/>
<glyph glyph-name="genericon-user" unicode="&#57348;" d="M256 288c-35 0-64 29-64 64 0 35 29 64 64 64 35 0 64-29 64-64 0-35-29-64-64-64z m32-32c53 0 96-43 96-96l0-64-256 0 0 64c0 53 43 96 96 96z"/>
<glyph glyph-name="genericon-quote" unicode="&#57349;" d="M64 224l0 160 160 0 0-160c0-71-57-128-128-128l0 64c35 0 64 29 64 64z m224 160l160 0 0-160c0-71-57-128-128-128l0 64c35 0 64 29 64 64l-96 0z"/>
<glyph glyph-name="genericon-info" unicode="&#57350;" d="M256 448c106 0 192-86 192-192 0-106-86-192-192-192-106 0-192 86-192 192 0 106 86 192 192 192z m0-64c-18 0-32-14-32-32 0-18 14-32 32-32 18 0 32 14 32 32 0 18-14 32-32 32z m64-256l0 32-40 0 0 128-80 0 0-32 32 0 0-96-40 0 0-32z"/>
<glyph glyph-name="genericon-wordpress" unicode="&#57351;" d="M256 480c123 0 224-100 224-224 0-123-101-224-224-224-124 0-224 101-224 224 0 124 100 224 224 224z m-201-224c0-80 46-149 113-181l-96 263c-11-25-17-53-17-82z m201-201c23 0 46 4 67 11-1 1-1 2-2 3l-61 169-61-175c18-5 37-8 57-8z m28 295l73-216 20 67c8 28 15 48 15 65 0 25-9 42-17 56-10 16-19 30-19 47 0 18 14 36 33 36 1 0 2 0 3 0-36 32-84 52-136 52-70 0-132-36-168-90 4-1 9-1 13-1 21 0 53 3 53 3 11 1 12-15 2-17 0 0-11-1-23-2l73-218 44 132-31 86c-11 1-21 2-21 2-11 1-10 18 1 17 0 0 33-3 53-3 21 0 54 3 54 3 10 1 12-15 1-17 0 0-11-1-23-2z m149 3c1-7 1-14 1-21 0-21-4-43-15-72l-62-178c60 35 100 100 100 174 0 35-9 68-24 97z"/>
<glyph glyph-name="genericon-heart" unicode="&#57352;" d="M256 96l-162 153c-37 36-40 96-7 135 34 40 91 43 129 7l40-38 40 38c38 36 95 33 129-7 33-39 30-99-7-135z"/>
<glyph glyph-name="genericon-lock" unicode="&#57353;" d="M384 288c18 0 32-14 32-32l0-160c0-18-14-32-32-32l-256 0c-18 0-32 14-32 32l0 160c0 18 14 32 32 32l0 32c0 71 57 128 128 128 71 0 128-57 128-128z m-192 0l128 0 0 32c0 35-29 64-64 64-35 0-64-29-64-64z"/>
<glyph glyph-name="genericon-ellipsis" unicode="&#57354;" d="M96 312c31 0 56-25 56-56 0-31-25-56-56-56-31 0-56 25-56 56 0 31 25 56 56 56z m160 0c31 0 56-25 56-56 0-31-25-56-56-56-31 0-56 25-56 56 0 31 25 56 56 56z m160 0c31 0 56-25 56-56 0-31-25-56-56-56-31 0-56 25-56 56 0 31 25 56 56 56z"/>
<glyph glyph-name="genericon-home" unicode="&#57355;" d="M256 416l160-128-32-32 0-128-256 0 0 128-32 32z m32-272l0 112-64 0 0-112z"/>
<glyph glyph-name="genericon-twitter" unicode="&#57356;" d="M480 396c-12-18-28-35-46-48 0-4 0-8 0-11 0-122-92-262-261-262-52 0-100 15-141 41 7-1 15-1 22-1 43 0 83 15 114 39-40 1-74 28-86 64 6-1 12-1 18-1 8 0 16 1 24 3-42 8-74 45-74 90l0 1c12-7 27-11 42-11-25 16-41 44-41 76 0 17 4 33 12 46 46-55 113-92 190-96-2 7-3 14-3 21 0 51 41 92 92 92 27 0 51-11 67-29 21 4 41 12 59 22-7-21-22-39-41-51 19 3 37 8 53 15z"/>
<glyph glyph-name="genericon-reddit" unicode="&#57357;" d="M306 194c5 5 13 5 18 0 5-5 5-13 0-18-14-14-36-22-68-22-31 0-54 8-68 22-5 5-5 13 0 18 5 5 13 5 18 0 9-10 26-14 50-14 24 0 40 4 50 14z m-82 52c0-16-13-28-28-28-15 0-28 12-28 28 0 15 12 28 28 28 15 0 28-13 28-28z m92 28c16 0 28-13 28-28 0-16-12-28-28-28-15 0-28 12-28 28 0 15 13 28 28 28z m109-2c6 5 10 12 10 20 0 14-11 25-24 25-8 0-15-4-19-10 13-10 25-22 33-35z m-170-147c87 0 158 45 158 99 0 54-71 99-158 99-87 0-158-45-158-99 0-54 71-99 158-99z m-178 167c0-8 4-14 10-19 8 13 19 25 33 35-5 5-11 9-19 9-13 0-24-11-24-25z m323 159c-10 0-19-9-19-19 0-10 9-19 19-19 10 0 19 8 19 19 0 11-9 19-19 19z m61-159c0-19-11-34-26-43 3-8 4-16 4-25 0-69-83-125-184-125-101 0-184 56-184 125 0 9 2 17 5 26-15 8-25 24-25 42 0 28 23 50 51 50 16 0 31-8 40-20 28 15 64 24 102 26l23 114c1 4 3 7 6 8 3 3 7 3 10 2l78-18c8 13 22 23 39 23 25 0 45-20 45-45 0-25-20-45-45-45-24 0-43 19-44 42l-66 15-19-96c37-2 71-12 99-27 9 13 24 21 41 21 27 0 50-22 50-50z"/>
<glyph glyph-name="genericon-youtube" unicode="&#57358;" d="M384 416c53 0 96-43 96-96l0-128c0-53-43-96-96-96l-256 0c-53 0-96 43-96 96l0 128c0 53 43 96 96 96z m-192-256l160 96-160 96z"/>
<glyph glyph-name="genericon-feed" unicode="&#57359;" d="M64 320c141 0 256-115 256-256l-64 0c0 106-86 192-192 192z m0 128c212 0 384-172 384-384l-64 0c0 176-144 320-320 320z m48-288c27 0 48-22 48-48 0-26-21-48-48-48-27 0-48 22-48 48 0 26 21 48 48 48z"/>
<glyph glyph-name="genericon-category" unicode="&#57360;" d="M176 288l240 0-64-160-256 0 0 256 96 0 16-32 112 0 0-32-160 0-32-64 32 0z"/>
<glyph glyph-name="genericons-expand" unicode="&#57361;" d="M352 320l32-32-144-144-144 144 32 32 112-112z"/>
<glyph glyph-name="genericon-time" unicode="&#57362;" d="M240 448c97 0 176-79 176-176 0-97-79-176-176-176-97 0-176 79-176 176 0 97 79 176 176 176z m0-320c79 0 144 64 144 144 0 80-65 144-144 144-80 0-144-64-144-144 0-80 64-144 144-144z m16 256l0-105 74-75-22-22-84 83 0 119z"/>
<glyph glyph-name="copyleft" unicode="&#57363;" d="M247 510c-134-3-242-113-242-248 0-137 111-248 248-248 137 0 248 111 248 248 0 137-111 248-248 248z m-1-43c2 1 5 0 7 0 113 0 205-92 205-205 0-113-92-205-205-205-113 0-205 92-205 205 0 111 88 202 198 205z m-101-164l-21 0 48-55 48 55-17 0c4 26 27 43 54 41l3 0c43 0 61-33 62-82 2-51-28-82-62-82-36 1-50 19-55 45l-65 0c11-61 55-96 118-96 72 0 124 59 124 133 0 79-52 134-124 134-2 0-4 0-6 0 0-1-1 0-1 0-45-1-106-33-106-93z"/>
<glyph glyph-name="creative-commons" unicode="&#57364;" d="M258 510c-68 0-128-25-174-72-48-48-74-111-74-176 0-66 25-127 73-175 47-47 109-73 175-73 65 0 128 26 177 74 46 46 71 106 71 174 0 67-25 129-72 176-47 47-108 72-176 72z m0-45c56 0 106-21 145-59 38-38 58-89 58-144 0-56-20-105-58-142-40-40-92-61-145-61-53 0-104 21-142 60-39 39-61 90-61 143 0 54 22 105 61 144 38 39 87 59 142 59z m-3-162c-14 26-38 36-66 36-40 0-72-28-72-77 0-49 30-77 74-77 28 0 52 16 65 39l-31 16c-7-17-17-22-30-22-23 0-34 19-34 44 0 25 9 44 34 44 6 0 19-3 27-20z m143 0c-14 26-38 36-65 36-41 0-73-28-73-77 0-49 30-77 74-77 28 0 52 16 65 39l-31 16c-7-17-17-22-30-22-23 0-33 19-33 44 0 25 8 44 33 44 7 0 20-3 27-20z"/>
<glyph glyph-name="public-domain" unicode="&#57365;" d="M322 324c0 8-7 16-16 16l-101 0c-9 0-16-8-16-16l0-102 28 0 0-120 77 0 0 120 28 0z m-32 64c0-20-15-35-35-35-19 0-34 15-34 35 0 19 15 34 34 34 20 0 35-15 35-34z m-35 122c-69 0-127-24-174-72-49-49-73-108-73-176 0-68 24-126 73-175 49-48 107-73 174-73 68 0 128 25 178 74 47 47 70 105 70 174 0 70-24 128-72 176-48 48-106 72-176 72z m1-45c56 0 104-19 143-59 40-39 60-87 60-144 0-57-20-104-59-142-41-40-89-60-144-60-56 0-104 19-144 60-40 40-60 87-60 142 0 55 20 103 61 144 39 40 86 59 143 59z"/>
</font>
</defs>
</svg>
